<?xml version="1.0" encoding="UTF-8" standalone="no"?>
<svg
   xmlns:dc="http://purl.org/dc/elements/1.1/"
   xmlns:cc="http://creativecommons.org/ns#"
   xmlns:rdf="http://www.w3.org/1999/02/22-rdf-syntax-ns#"
   xmlns:svg="http://www.w3.org/2000/svg"
   xmlns="http://www.w3.org/2000/svg"
   id="svg8"
   version="1.1"
   viewBox="0 0 79.374998 52.916668"
   height="200"
   width="300">
  <defs
     id="defs2" />
  <metadata
     id="metadata5">
    <rdf:RDF>
      <cc:Work
         rdf:about="">
        <dc:format>image/svg+xml</dc:format>
        <dc:type
           rdf:resource="http://purl.org/dc/dcmitype/StillImage" />
        <dc:title></dc:title>
      </cc:Work>
    </rdf:RDF>
  </metadata>
  <g
     transform="translate(0,-244.08332)"
     id="layer1">
    <path
       id="path3808"
       d="m 26.458334,249.63957 a 20.902084,20.902083 0 0 0 -20.902084,20.90209 20.902084,20.902083 0 0 0 20.902084,20.90208 20.902084,20.902083 0 0 0 1.301481,-0.0457 19.487498,19.487498 0 0 1 -19.4166205,-19.48412 19.487498,19.487498 0 0 1 19.4873835,-19.48739 19.487498,19.487498 0 0 1 19.476495,19.1793 20.902084,20.902083 0 0 0 0.05334,-1.06416 20.902084,20.902083 0 0 0 -20.902083,-20.90209 z"
       style="fill:#000000;stroke-width:0.28591448" />
    <circle
       r="1.3229166"
       cy="270.54166"
       cx="26.458334"
       id="path3816"
       style="fill:#000000;stroke-width:0.22777173" />
    <rect
       y="257.3125"
       x="26.061459"
       height="13.229167"
       width="0.79374999"
       id="rect3818"
       style="fill:#000000;stroke-width:0.3672362" />
    <rect
       y="250.69759"
       x="25.532291"
       height="5.2916665"
       width="1.8520833"
       id="rect3818-9"
       style="fill:#000000;stroke-width:0.35478392" />
    <rect
       y="269.6156"
       x="6.6145835"
       height="1.8520833"
       width="5.2916665"
       id="rect3818-9-3"
       style="fill:#000000;stroke-width:0.35478395" />
    <rect
       transform="rotate(-45)"
       y="189.96008"
       x="-173.12212"
       height="4.2333331"
       width="1.0583333"
       id="rect3818-9-8"
       style="fill:#000000;stroke-width:0.23987773" />
    <rect
       y="245.40593"
       x="24.473959"
       height="5.2916665"
       width="3.96875"
       id="rect3818-9-0"
       style="fill:#000000;stroke-width:0.51935053" />
    <rect
       y="244.61249"
       x="22.489584"
       height="3.175"
       width="7.9375"
       id="rect3818-9-0-4"
       style="fill:#000000;stroke-width:0.56892002" />
    <rect
       transform="rotate(-135)"
       y="-175.23877"
       x="-187.23903"
       height="5.2916665"
       width="2.6458333"
       id="rect3894"
       style="fill:#000000;stroke-width:0.42989704" />
    <rect
       transform="rotate(-45)"
       y="185.14116"
       x="-173.91585"
       height="5.2916665"
       width="2.6458333"
       id="rect3938"
       style="fill:#000000;stroke-width:0.30876333" />
    <text
       id="text3953"
       y="284.87814"
       x="22.799561"
       style="font-style:normal;font-variant:normal;font-weight:bold;font-stretch:normal;font-size:10.76921368px;line-height:1.25;font-family:Helvetica;-inkscape-font-specification:'Helvetica Bold';letter-spacing:0px;word-spacing:0px;fill:#000000;fill-opacity:1;stroke:none;stroke-width:0.26923034"
       xml:space="preserve"><tspan
         style="font-style:normal;font-variant:normal;font-weight:bold;font-stretch:normal;font-family:Helvetica;-inkscape-font-specification:'Helvetica Bold';stroke-width:0.26923034"
         y="284.87814"
         x="22.799561"
         id="tspan3951">CHRONOS</tspan></text>
  </g>
</svg>
